<svg xmlns="http://www.w3.org/2000/svg" viewBox="0 0 1308.74 652.08"><defs><style>.cls-1,.cls-2,.cls-3,.cls-4,.cls-6{fill:none;}.cls-1,.cls-11,.cls-12,.cls-13,.cls-14,.cls-15,.cls-2,.cls-3,.cls-4,.cls-6,.cls-7,.cls-9{stroke:#000;stroke-miterlimit:10;}.cls-2{stroke-dasharray:11.73 11.73;}.cls-3{stroke-dasharray:12.22 12.22;}.cls-4{stroke-dasharray:11.78 11.78;}.cls-5{fill:#fff;}.cls-14,.cls-15,.cls-6,.cls-7,.cls-9{stroke-width:2px;}.cls-7{fill:#ffe699;}.cls-8{font-size:29.54px;}.cls-17,.cls-18,.cls-8{font-family:TimesNewRomanPS-ItalicMT, Times New Roman;}.cls-17,.cls-19,.cls-8{font-style:italic;}.cls-9{fill:#bdccd4;}.cls-10{font-size:20.55px;}.cls-10,.cls-12,.cls-13,.cls-16,.cls-20{font-family:TimesNewRomanPSMT, Times New Roman;}.cls-11{fill:#f99;}.cls-12,.cls-13{font-size:23.12px;}.cls-12{stroke-width:0.25px;}.cls-13{stroke-width:0.5px;}.cls-14{fill:#c5e0b4;}.cls-15{fill:#dbdbdb;}.cls-16{font-size:27px;}.cls-17{font-size:28px;}.cls-18{font-size:28.25px;}</style></defs><title>dGMU</title><g id="Layer_3" data-name="Layer 3"><polyline class="cls-1" points="569.25 605.04 569.25 611.04 563.25 611.04"/><line class="cls-2" x1="551.53" y1="611.04" x2="64.85" y2="611.04"/><polyline class="cls-1" points="58.99 611.04 52.99 611.04 52.99 605.04"/><line class="cls-3" x1="52.99" y1="592.82" x2="52.99" y2="12.61"/><polyline class="cls-1" points="52.99 6.5 52.99 0.5 58.99 0.5"/><line class="cls-2" x1="70.72" y1="0.5" x2="557.39" y2="0.5"/><polyline class="cls-1" points="563.25 0.5 569.25 0.5 569.25 6.5"/><line class="cls-3" x1="569.25" y1="18.72" x2="569.25" y2="598.93"/><polyline class="cls-1" points="1193.39 605.04 1193.39 611.04 1187.39 611.04"/><line class="cls-4" x1="1175.61" y1="611.04" x2="733.97" y2="611.04"/><polyline class="cls-1" points="728.08 611.04 722.08 611.04 722.08 605.04"/><line class="cls-3" x1="722.08" y1="592.82" x2="722.08" y2="12.61"/><polyline class="cls-1" points="722.08 6.5 722.08 0.5 728.08 0.5"/><line class="cls-4" x1="739.85" y1="0.5" x2="1181.5" y2="0.5"/><polyline class="cls-1" points="1187.39 0.5 1193.39 0.5 1193.39 6.5"/><line class="cls-3" x1="1193.39" y1="18.72" x2="1193.39" y2="598.93"/><path class="cls-5" d="M577.15,262.08a1.5,1.5,0,0,0,0-3,1.5,1.5,0,0,0,0,3Z" transform="translate(-7.26 -23.46)"/><path class="cls-5" d="M576.83,317a1.5,1.5,0,0,0,0-3,1.5,1.5,0,0,0,0,3Z" transform="translate(-7.26 -23.46)"/><path class="cls-5" d="M570.27,161.76a21.79,21.79,0,0,1,4.31,12.74c.09,7.07,11.09,7.09,11,0a32.06,32.06,0,0,0-5.81-18.29c-1.72-2.42-4.8-3.57-7.53-2-2.38,1.39-3.7,5.09-2,7.52Z" transform="translate(-7.26 -23.46)"/><path class="cls-5" d="M571.4,160.5c-1.33,55,11.08,109.74,4.66,164.69l10.25-2.77c-8.31-14.7-9.86-32.9-7.94-49.45,1.84-16,15.15-31.33,5.74-47.29-2.46-4.16-8.68-3.17-10.06,1.31a101.45,101.45,0,0,0-4.48,30.41h11l-.49-5.91c-.58-7-11.59-7.06-11,0l.49,5.91c.58,7,11,7.19,11,0a90.47,90.47,0,0,1,4.09-27.48l-10,1.31c4.51,7.65.06,16.56-2.83,24a74,74,0,0,0-4.89,24.72c-.6,16.58,1.66,33.44,9.92,48.06,2.93,5.17,9.66,2.26,10.25-2.78,6.42-54.95-6-109.7-4.66-164.69.17-7.08-10.83-7.08-11,0Z" transform="translate(-7.26 -23.46)"/><path class="cls-5" d="M574.94,309.87c-4,6.78-4.89,14.34-5.11,22.07s.37,15.84-3.45,22.82l10.25,2.78,1.22-53.84c.38-17.05-.56-34.84,4.75-51.26L572,249.52c-3.85,24.31-4.65,48.86-5.11,73.42q-.69,37.72-1.36,75.44c-.12,6.53,8.73,7,10.81,1.46a152,152,0,0,0,6.09-20.7l-10.61-2.93a128.46,128.46,0,0,1-6.45,25l10.8,1.47a170.8,170.8,0,0,1,8.61-39.12L574,362.1c2.73,26.65-9.33,51.88-10.74,78.27-.3,5.53,7.63,7.38,10.25,2.78a69.92,69.92,0,0,0,8.73-27.53c.76-7.08-10.11-6.88-11,0a287.61,287.61,0,0,0-1.88,54.95c1.18,18.54,4.14,37,1.9,55.57l10.25-2.78c-1-2.06-.27-3.69.93-5.42,4-5.84-5.5-11.35-9.5-5.55-3.55,5.14-3.5,11-.93,16.53s9.68,2,10.25-2.78c2.24-18.58-.72-37-1.9-55.57a287.61,287.61,0,0,1,1.88-54.95h-11a56.37,56.37,0,0,1-7.23,22l10.25,2.77c1.41-26.43,13.49-51.48,10.74-78.27-.63-6.09-8.71-7.56-10.81-1.46a182.52,182.52,0,0,0-9,42c-.63,6.56,8.81,6.88,10.8,1.46a128.48,128.48,0,0,0,6.46-25c1.05-6.83-9.07-10-10.61-2.93a150.77,150.77,0,0,1-6.09,20.71l10.8,1.46q.66-36.75,1.33-73.49c.44-24.2.95-48.5,4.74-72.45,1.09-6.87-8.38-9.8-10.6-2.92-5.43,16.74-4.72,34.8-5.11,52.18l-1.26,55.84c-.12,5.4,7.64,7.55,10.25,2.77,3.78-6.92,4.64-14.47,4.83-22.24s-.3-15.76,3.73-22.65c3.58-6.13-5.92-11.67-9.5-5.55Z" transform="translate(-7.26 -23.46)"/><path class="cls-5" d="M737.87,592.31c6.39-65.92,7.17-132.17,7.79-198.34.3-32.6,1.2-65.26.3-97.84-.9-32.79-6.09-65.26-6.67-98.06-.16-9.09-.26-18.16-.85-27.23-.27-4.25-.73-8.6-.28-12.86.4-3.92,1.67-7.71,2.77-11.49,5.19-17.85,3.6-35,1-53.15-.72-5.09-7.19-7.87-11.69-6.64-5.46,1.51-7.35,6.59-6.63,11.69a172.83,172.83,0,0,1,2.07,21.89c.11,8-1.39,15.21-3.61,22.89-4.52,15.61-2.2,31.09-1.93,47.08.54,32.22,5.05,64,6.45,96.19,1.42,32.5.43,65.12.13,97.64s-.56,64.85-1.45,97.27c-1,37-2.85,74.07-6.43,111-.5,5.11,4.72,9.5,9.5,9.5,5.55,0,9-4.37,9.5-9.5Z" transform="translate(-7.26 -23.46)"/><path class="cls-5" d="M1199.13,383q-.39,8.25-.29,16.5a1.5,1.5,0,0,0,3,0q-.1-8.25.29-16.5c.09-1.93-2.91-1.93-3,0Z" transform="translate(-7.26 -23.46)"/></g><g id="Layer_2" data-name="Layer 2"><line class="cls-6" x1="51.71" y1="135.34" x2="241.66" y2="135.34"/><polygon points="240.2 140.33 248.84 135.34 240.2 130.36 240.2 140.33"/><line class="cls-6" x1="51.71" y1="505.2" x2="241.66" y2="505.2"/><polygon points="240.2 510.19 248.84 505.2 240.2 500.22 240.2 510.19"/><line class="cls-6" x1="120.41" y1="319.63" x2="198" y2="319.63"/><polygon points="196.54 324.62 205.17 319.63 196.54 314.65 196.54 324.62"/><line class="cls-6" x1="121.06" y1="505.85" x2="121.06" y2="134.7"/><rect class="cls-7" x="205.17" y="297.25" width="43.66" height="44.22" rx="12" ry="12"/><text class="cls-8" transform="translate(219.62 325.78)">σ</text><rect class="cls-9" x="248.84" y="113.6" width="90.54" height="44.22" rx="12" ry="12"/><text class="cls-10" transform="translate(263.28 140.85)">maxout</text><rect class="cls-9" x="248.84" y="483.46" width="90.54" height="44.22" rx="12" ry="12"/><text class="cls-10" transform="translate(263.28 510.71)">maxout</text><line class="cls-6" x1="338.73" y1="134.7" x2="424.02" y2="134.7"/><polygon points="422.56 139.69 431.2 134.7 422.56 129.72 422.56 139.69"/><line class="cls-6" x1="338.73" y1="505.85" x2="424.02" y2="505.85"/><polygon points="422.56 510.83 431.2 505.85 422.56 500.86 422.56 510.83"/><line class="cls-6" x1="248.84" y1="319.63" x2="446.61" y2="319.63"/><circle class="cls-11" cx="446.61" cy="134.7" r="15.41"/><line class="cls-6" x1="435.05" y1="144.98" x2="458.17" y2="124.43"/><line class="cls-6" x1="458.17" y1="144.98" x2="435.05" y2="124.43"/><circle class="cls-11" cx="447.25" cy="506.49" r="15.41"/><line class="cls-6" x1="435.69" y1="516.76" x2="458.81" y2="496.21"/><line class="cls-6" x1="458.81" y1="516.76" x2="435.69" y2="496.21"/><circle class="cls-11" cx="446.93" cy="411.13" r="26.01"/><text class="cls-12" transform="translate(439.23 418.24)">1-</text><line class="cls-6" x1="446.61" y1="437.78" x2="446.61" y2="483.26"/><polygon points="441.62 481.8 446.61 490.44 451.6 481.8 441.62 481.8"/><line class="cls-6" x1="446.61" y1="150.11" x2="446.61" y2="377.95"/><polygon points="441.62 376.49 446.61 385.13 451.6 376.49 441.62 376.49"/><circle class="cls-11" cx="567.65" cy="264.73" r="26.01"/><text class="cls-13" transform="translate(561.23 272.84)">+</text><line class="cls-6" x1="568.61" y1="134.7" x2="568.61" y2="231.55"/><polygon points="563.63 230.09 568.61 238.72 573.6 230.09 563.63 230.09"/><line class="cls-6" x1="568.61" y1="505.85" x2="568.61" y2="297.27"/><polygon points="573.6 298.73 568.61 290.1 563.63 298.73 573.6 298.73"/><line class="cls-6" x1="462.16" y1="134.7" x2="569.61" y2="134.7"/><line class="cls-6" x1="463.19" y1="505.85" x2="569.59" y2="505.85"/><line class="cls-6" x1="594.3" y1="264.41" x2="745.08" y2="264.41"/><polygon points="743.62 269.4 752.26 264.41 743.62 259.42 743.62 269.4"/><rect class="cls-14" x="752.26" y="242.03" width="90.54" height="44.22" rx="12" ry="12"/><text class="cls-10" transform="translate(773.13 270.56)">ReLu</text><rect class="cls-14" x="749.69" y="538.68" width="90.54" height="44.22" rx="12" ry="12"/><text class="cls-10" transform="translate(771.84 565.93)">ReLu</text><rect class="cls-14" x="752.26" y="50.67" width="90.54" height="44.22" rx="12" ry="12"/><text class="cls-10" transform="translate(773.13 79.2)">ReLu</text><line class="cls-6" x1="842.15" y1="73.06" x2="931.29" y2="73.06"/><polygon points="929.84 78.05 938.47 73.06 929.84 68.07 929.84 78.05"/><line class="cls-6" x1="840.87" y1="561.07" x2="932.58" y2="561.07"/><polygon points="931.12 566.05 939.75 561.07 931.12 556.08 931.12 566.05"/><circle class="cls-11" cx="953.88" cy="71.78" r="15.41"/><line class="cls-6" x1="942.32" y1="82.05" x2="965.44" y2="61.5"/><line class="cls-6" x1="965.44" y1="82.05" x2="942.32" y2="61.5"/><circle class="cls-11" cx="955.81" cy="561.71" r="15.41"/><line class="cls-6" x1="944.25" y1="571.98" x2="967.37" y2="551.44"/><line class="cls-6" x1="967.37" y1="571.98" x2="944.25" y2="551.44"/><line class="cls-6" x1="1074.6" y1="73.06" x2="1074.6" y2="336.86"/><polygon points="1069.61 335.4 1074.6 344.03 1079.59 335.4 1069.61 335.4"/><line class="cls-6" x1="1074.6" y1="561.07" x2="1074.6" y2="402.58"/><polygon points="1079.59 404.04 1074.6 395.4 1069.61 404.04 1079.59 404.04"/><line class="cls-6" x1="969.89" y1="72.06" x2="1075.59" y2="72.06"/><line class="cls-6" x1="972.01" y1="561.07" x2="1075.59" y2="561.07"/><circle class="cls-11" cx="1074.92" cy="370.04" r="26.01"/><text class="cls-13" transform="translate(1068.22 378.43)">+</text><rect class="cls-15" x="1101.85" y="348.62" width="90.54" height="44.22" rx="12" ry="12"/><text class="cls-10" transform="translate(1113.73 377.86)">softmax</text><line class="cls-6" x1="1191.75" y1="371" x2="1301.56" y2="371"/><polygon points="1300.11 375.99 1308.74 371 1300.11 366.02 1300.11 375.99"/><text class="cls-16" transform="translate(169.47 643.8)">Representation Network</text><text class="cls-16" transform="translate(876.83 643.8)">Decision Network</text><text class="cls-17" transform="translate(637.65 257)">ĥ</text><text class="cls-18" transform="translate(1248.24 360.02)"><tspan class="cls-19">ŷ</tspan><tspan class="cls-20" x="12.54" y="0"> </tspan></text><text class="cls-17" transform="translate(8.98 135.99)">x</text><text class="cls-17" transform="translate(21.41 145.31) scale(0.58)">1</text><text class="cls-17" transform="translate(0.98 510.98)">x</text><text class="cls-17" transform="translate(13.41 520.31) scale(0.58)">2</text><text class="cls-17" transform="translate(370.84 119.29)">h</text><text class="cls-17" transform="translate(384.84 128.62) scale(0.58)">1</text><text class="cls-17" transform="translate(370.84 491.01)">h</text><text class="cls-17" transform="translate(384.84 500.34) scale(0.58)">2</text><text class="cls-17" transform="translate(370.84 306.79)">z</text><line class="cls-6" x1="722.72" y1="73.06" x2="722.72" y2="561.07"/><rect class="cls-7" x="863.98" y="152.13" width="43.66" height="44.22" rx="12" ry="12"/><text class="cls-8" transform="translate(878.43 180.66)">σ</text><line class="cls-6" x1="722.72" y1="174.51" x2="862.7" y2="174.51"/><line class="cls-6" x1="907.65" y1="174.51" x2="953.88" y2="174.51"/><line class="cls-6" x1="953.88" y1="94.58" x2="953.88" y2="175.5"/><polygon points="948.89 96.04 953.88 87.4 958.87 96.04 948.89 96.04"/><rect class="cls-7" x="865.27" y="339.63" width="43.66" height="44.22" rx="12" ry="12"/><text class="cls-8" transform="translate(879.72 368.16)">σ</text><line class="cls-6" x1="724" y1="362.01" x2="863.98" y2="362.01"/><line class="cls-6" x1="908.93" y1="362.01" x2="952.6" y2="362.01"/><line class="cls-6" x1="952.6" y1="287.53" x2="952.6" y2="363.01"/><polygon points="947.61 288.99 952.6 280.35 957.58 288.99 947.61 288.99"/><line class="cls-6" x1="842.15" y1="264.41" x2="930.01" y2="264.41"/><polygon points="928.55 269.4 937.19 264.41 928.55 259.42 928.55 269.4"/><circle class="cls-11" cx="952.6" cy="264.41" r="15.41"/><line class="cls-6" x1="941.04" y1="274.68" x2="964.16" y2="254.14"/><line class="cls-6" x1="964.16" y1="274.68" x2="941.04" y2="254.14"/><rect class="cls-7" x="862.7" y="444.93" width="43.66" height="44.22" rx="12" ry="12"/><text class="cls-8" transform="translate(877.15 473.46)">σ</text><line class="cls-6" x1="722.72" y1="467.32" x2="862.7" y2="467.32"/><line class="cls-6" x1="906.36" y1="467.32" x2="955.74" y2="467.32"/><line class="cls-6" x1="955.17" y1="538.7" x2="955.17" y2="466.32"/><polygon points="960.15 537.24 955.17 545.88 950.18 537.24 960.15 537.24"/><line class="cls-6" x1="968.01" y1="264.41" x2="1074.6" y2="264.41"/><line class="cls-6" x1="12.54" y1="73.06" x2="12.54" y2="106.45"/><line class="cls-6" x1="11.56" y1="73.06" x2="745.26" y2="73.06"/><polygon points="743.8 78.05 752.44 73.06 743.8 68.07 743.8 78.05"/><line class="cls-6" x1="12.68" y1="527.68" x2="12.68" y2="561.07"/><line class="cls-6" x1="11.68" y1="561.07" x2="741.17" y2="561.07"/><polygon points="739.71 566.05 748.34 561.07 739.71 556.08 739.71 566.05"/><text class="cls-17" transform="translate(884.53 56.37)">d</text><text class="cls-17" transform="translate(898.53 65.69) scale(0.58)">1</text><text class="cls-17" transform="translate(884.53 249)">d</text><text class="cls-17" transform="translate(898.53 258.32) scale(0.58)">2</text><text class="cls-17" transform="translate(885.39 547.09)">d</text><text class="cls-17" transform="translate(899.39 556.41) scale(0.58)">3</text></g></svg>